<?xml version="1.0" encoding="UTF-8"?>
<svg width="128" height="128" viewBox="0 0 128 128" version="1.1" xmlns="http://www.w3.org/2000/svg" >
  <defs>
    <radialGradient id="gradient">
      <stop stop-color="white" offset="30%" />
      <stop stop-color="#159fab" offset="100%" />
    </radialGradient>
  </defs>
  <path
     fill="url(#gradient)"
     stroke="#226abe"
     stroke-width="8"
     d="M 11,40 C 5,55 10,61 10,61 L 31,50 20,69 c 0,0 5,3 8,6 9,7 26,13 18,40 L 94,89 c 6,-12 2,-20 1,-22 l -18,9 11,-19 c 0,0 -7,-3 -18,-9 C 60,42 50,34 58,13 Z"
     />
  <path
     fill="#159fab"
     stroke="#159fab"
     stroke-width="2"
     d="m 45,64 1,-0 -3,12 11,-4 0,1 -13,4 -0,-1 z m 15,13 -15,-29 1,-1 16,29 z m 3,-12 -1,0 3,-12 -11,4 -0,-1 13,-4 0,1 z"
     />
  <path
     fill="#159fab"
     d="m 69,72 c 0,0 5,-37 12,-50 19,-31 39,-13 42,-6 2,9 -23,3 -27,14 C 85,59 82,24 69,72 Z"
     />
  <path
     fill="white"
     d="M 77,45 C 86,15 97,11 111,10 92,14 88,22 77,45 Z"
     />
</svg>
