<?xml version="1.0" encoding="UTF-8" standalone="no"?>
<!-- Created with Inkscape (http://www.inkscape.org/) -->

<svg
   width="128"
   height="128"
   viewBox="0 0 128 128"
   version="1.1"
   id="svg1"
   inkscape:version="1.4 (86a8ad7, 2024-10-11)"
   sodipodi:docname="wuchale-logo.svg"
   inkscape:export-filename="wuchale-logo-0.svg"
   inkscape:export-xdpi="96"
   inkscape:export-ydpi="96"
   xmlns:inkscape="http://www.inkscape.org/namespaces/inkscape"
   xmlns:sodipodi="http://sodipodi.sourceforge.net/DTD/sodipodi-0.dtd"
   xmlns:xlink="http://www.w3.org/1999/xlink"
   xmlns="http://www.w3.org/2000/svg"
   xmlns:svg="http://www.w3.org/2000/svg">
  <sodipodi:namedview
     id="namedview1"
     pagecolor="#ffffff"
     bordercolor="#000000"
     borderopacity="0.25"
     inkscape:showpageshadow="2"
     inkscape:pageopacity="0.0"
     inkscape:pagecheckerboard="0"
     inkscape:deskcolor="#d1d1d1"
     inkscape:document-units="mm"
     inkscape:zoom="3.6823117"
     inkscape:cx="46.302435"
     inkscape:cy="34.896556"
     inkscape:window-width="1920"
     inkscape:window-height="1051"
     inkscape:window-x="-9"
     inkscape:window-y="-9"
     inkscape:window-maximized="1"
     inkscape:current-layer="layer1" />
  <defs
     id="defs1">
    <pattern
       inkscape:collect="always"
       xlink:href="#pattern6-7"
       preserveAspectRatio="xMidYMid"
       id="pattern12"
       patternTransform="translate(190,350)" />
    <pattern
       patternUnits="userSpaceOnUse"
       width="29"
       height="20"
       patternTransform="translate(190,350)"
       preserveAspectRatio="xMidYMid"
       style="fill:#000000"
       id="pattern6-7"
       inkscape:label=""
       inkscape:collect="always"
       inkscape:isstock="true">
      <path
         style="fill:none;stroke:#000000;stroke-width:10;stroke-linecap:butt;stroke-dasharray:none;paint-order:stroke markers fill;stop-color:#000000"
         d="M 0,5 C 19,5 10,15 29,15"
         id="path4-2"
         sodipodi:nodetypes="cc" />
    </pattern>
  </defs>
  <g
     inkscape:label="Layer 1"
     inkscape:groupmode="layer"
     id="layer1">
    <path
       style="fill:none;fill-opacity:1;stroke:#000000;stroke-width:5.37319;stroke-linecap:round;stroke-linejoin:miter;stroke-dasharray:none;stroke-dashoffset:42.3307;stroke-opacity:1;paint-order:normal"
       d="m 28.200098,30.845081 -13.264253,5.352892 c 0,0 1.161786,8.971451 5.615044,8.963092 5.948672,-0.01081 8.33305,-3.57682 8.423156,-11.299514 C 29.048898,27.476111 18.199804,15.773185 9.9983133,23.633729 1.7968216,31.494265 1.2809421,38.966334 7.2511727,48.600056 15.225085,61.46698 19.840384,85.16329 19.840384,85.16329 l 14.093849,-0.960633 -13.677742,9.013689 c 0,0 -1.235025,12.318784 2.825005,20.919164 2.932152,6.21115 8.824593,9.92652 15.867343,8.15707 4.614067,-1.15922 8.644813,-5.64974 7.536505,-12.52773 -1.108307,-6.87795 -6.871519,-12.773357 -12.856395,-7.36924 -4.339748,3.91864 0.519729,9.39601 0.519729,9.39601 l 9.396479,-6.49819"
       id="path5"
       sodipodi:nodetypes="ccsssscccsssscc" />
    <path
       style="fill:none;fill-opacity:1;stroke:#000000;stroke-width:5.37319;stroke-linecap:round;stroke-linejoin:miter;stroke-dasharray:none;stroke-dashoffset:42.3307;stroke-opacity:1;paint-order:normal"
       d="m 14.882683,21.098888 c 0,0 10.282631,-2.356041 14.713399,-2.919269 3.514152,-0.446707 7.288751,-1.088388 11.490144,-2.697164 C 52.247691,11.208588 56.335682,1.2133252 66.675692,5.8601285 76.503166,10.276592 69.5382,22.562033 65.548279,24.772809 61.558364,26.983578 53.256843,29.253846 46.163668,31.464623 39.070475,33.6754 25.772655,43.64401 25.772655,43.64401"
       id="path6"
       sodipodi:nodetypes="csssssc" />
    <path
       style="fill:none;fill-opacity:1;stroke:#000000;stroke-width:5.37319;stroke-linecap:round;stroke-linejoin:miter;stroke-dasharray:none;stroke-dashoffset:42.3307;stroke-opacity:1;paint-order:normal"
       d="M 44.424598,118.86257 C 52.756393,107.06001 66.130153,101.37004 85.497859,98.710984 97.578421,97.05241 97.070877,84.926744 92.591045,81.761699 87.849654,78.411841 83.032843,78.169675 74.812271,84.600351 62.179468,94.482579 38.281424,100.28732 38.281424,100.28732"
       id="path7"
       sodipodi:nodetypes="csssc" />
    <path
       style="fill:none;fill-opacity:1;stroke:#000000;stroke-width:5.37319;stroke-linecap:round;stroke-linejoin:miter;stroke-dasharray:none;stroke-dashoffset:42.3307;stroke-opacity:1;paint-order:normal"
       d="m 62.472719,26.189437 c -0.216815,5.696942 0.906411,15.630312 0.906411,15.630312 l -6.933996,8.346715 8.091656,-1.691321 c 0,0 3.11206,12.08491 5.443626,17.852987 2.130535,5.270744 7.75927,15.187927 7.75927,15.187927"
       id="path8"
       sodipodi:nodetypes="ccccac" />
    <text
       xml:space="preserve"
       style="font-weight:bold;font-size:9.74856px;line-height:0;font-family:sans-serif;-inkscape-font-specification:'sans-serif Bold';text-align:start;writing-mode:lr-tb;direction:ltr;text-anchor:start;fill:none;fill-opacity:1;stroke:#000000;stroke-width:5.37319;stroke-linecap:round;stroke-linejoin:miter;stroke-dasharray:none;stroke-dashoffset:42.3307;stroke-opacity:1;paint-order:normal"
       x="11.154918"
       y="45.565079"
       id="text9"><tspan
         sodipodi:role="line"
         id="tspan9"
         style="fill:none;fill-opacity:1;stroke:#000000;stroke-width:5.37319;stroke-linecap:round;stroke-linejoin:miter;stroke-dasharray:none;stroke-opacity:1;paint-order:normal"
         x="11.154918"
         y="45.565079"></tspan></text>
    <text
       xml:space="preserve"
       style="font-style:normal;font-variant:normal;font-weight:normal;font-stretch:normal;font-size:37.1053px;line-height:0;font-family:Gigi;-inkscape-font-specification:Gigi;text-align:start;writing-mode:lr-tb;direction:ltr;text-anchor:start;fill:#beefc1;stroke:#000000;stroke-width:0;stroke-linejoin:bevel;stroke-dasharray:none;stroke-dashoffset:42.3307;stroke-opacity:0.68059"
       x="-6.0685563"
       y="77.270393"
       id="text10"
       transform="matrix(0.88490596,-0.392268,0.35722641,0.97170948,0,0)"><tspan
         sodipodi:role="line"
         id="tspan10"
         style="font-style:normal;font-variant:normal;font-weight:normal;font-stretch:normal;font-family:'Blackadder ITC';-inkscape-font-specification:'Blackadder ITC';fill:#000000;fill-opacity:1;stroke-width:0;stroke-dasharray:none"
         x="-6.0685563"
         y="77.270393">W</tspan></text>
    <text
       xml:space="preserve"
       style="font-style:normal;font-variant:normal;font-weight:normal;font-stretch:normal;font-size:41.3648px;line-height:0;font-family:'Blackadder ITC';-inkscape-font-specification:'Blackadder ITC';text-align:start;writing-mode:lr-tb;direction:ltr;text-anchor:start;fill:#000000;fill-opacity:1;stroke:#000000;stroke-width:0;stroke-linejoin:bevel;stroke-dasharray:none;stroke-dashoffset:42.3307;stroke-opacity:0.68059"
       x="23.615063"
       y="85.426918"
       id="text11"
       transform="matrix(0.71279634,-0.36775556,0.37461132,1.2096507,0,0)"><tspan
         sodipodi:role="line"
         id="tspan11"
         style="font-style:normal;font-variant:normal;font-weight:normal;font-stretch:normal;font-family:Nyala;-inkscape-font-specification:Nyala;stroke-width:0"
         x="23.615063"
         y="85.426918">ው</tspan></text>
    <path
       style="fill:none;fill-opacity:1;stroke:#000000;stroke-width:5.37319;stroke-linecap:round;stroke-linejoin:miter;stroke-dasharray:none;stroke-dashoffset:42.3307;stroke-opacity:1;paint-order:normal"
       d="m 67.619323,61.718204 c 0,0 -0.460113,-12.875666 10.013144,-28.552744 10.47325,-15.677076 23.113493,-18.989065 26.917743,-19.247317 15.53606,-1.054671 18.52715,21.72931 18.52715,21.72931 l -21.34621,-7.016151 4.53739,12.504565 -13.723995,-6.481231 2.30602,11.050669 -7.836069,-3.684176 -0.870827,7.187108 c 0,0 -6.203933,-9.975259 -18.524346,12.509967 z"
       id="path9"
       sodipodi:nodetypes="csscccccccc" />
    <path
       style="fill:#dfe586;fill-opacity:1;stroke:#000000;stroke-width:0;stroke-linecap:round;stroke-linejoin:miter;stroke-dasharray:none;stroke-dashoffset:42.3307;stroke-opacity:1;paint-order:normal"
       d="m 31.672274,34.151299 c -0.0043,-2.222013 -0.240112,-3.286465 -1.189108,-5.368919 -0.94472,-2.073039 -3.064018,-4.9372 -4.665774,-6.305613 -0.515405,-0.440303 -0.681911,-0.657293 -0.556824,-0.725659 0.190792,-0.104212 2.940753,-0.571794 6.704713,-1.139912 7.982647,-1.204935 12.997752,-3.220661 19.223006,-7.726324 5.544449,-4.0129143 6.132952,-4.3826056 8.002406,-5.0269734 2.107856,-0.7265739 4.062119,-0.5320393 6.507811,0.6476454 1.48316,0.7154294 2.456127,1.674945 2.899189,2.859129 0.374258,1.00037 0.377164,2.635152 0.0073,4.08558 -0.543986,2.132396 -2.451762,5.377542 -3.77442,6.420196 -1.583306,1.248116 -5.294762,2.619832 -15.670718,5.791738 -2.58253,0.789451 -5.085026,1.593689 -5.561108,1.787142 -2.391206,0.971626 -7.18868,3.618713 -10.758281,5.936047 l -1.164297,0.75585 z"
       id="path22" />
    <path
       style="fill:#dfe586;fill-opacity:1;stroke:#000000;stroke-width:0;stroke-linecap:round;stroke-linejoin:miter;stroke-dasharray:none;stroke-dashoffset:42.3307;stroke-opacity:1;paint-order:normal"
       d="m 33.036786,119.65676 c -2.675539,-0.70196 -5.113395,-2.66477 -6.772696,-5.45421 -1.312282,-2.20617 -2.380951,-5.61152 -2.929008,-9.33351 -0.355137,-2.41167 -0.614627,-7.485074 -0.46018,-8.996856 l 0.116854,-1.143547 7.002088,-4.609426 c 12.618886,-8.306903 14.022647,-9.241942 13.963571,-9.301018 -0.0524,-0.0524 -18.832746,1.185465 -21.038192,1.386337 l -0.888306,0.08067 -0.175073,-0.860619 C 21.498379,79.667285 19.923171,73.532138 19.069081,70.570701 16.177058,60.543119 13.167674,53.089493 9.6020823,47.122881 7.0445531,42.84314 6.048034,39.960067 6.048034,36.840504 c 0,-3.667177 1.5798741,-6.839034 5.249636,-10.539511 1.20852,-1.218641 1.680169,-1.596433 2.448585,-1.96135 2.22257,-1.055478 4.866614,-0.509001 7.522017,1.554773 1.370427,1.065076 3.296138,3.261256 3.056367,3.485641 -0.07818,0.07319 -9.243903,3.806403 -12.243257,4.986478 -0.185885,0.07319 -0.173659,0.213914 0.240445,2.757287 0.762502,4.68356 2.500291,8.173335 4.845097,9.729729 1.281018,0.850289 2.129985,1.046354 4.193251,0.968399 3.093344,-0.116854 4.052437,-0.518565 7.999156,-3.350173 5.524072,-3.96332 10.239574,-6.910422 14.162805,-8.851503 2.234106,-1.105355 2.820489,-1.324517 6.730172,-2.515437 2.355551,-0.717509 5.421831,-1.666961 6.813941,-2.10985 1.392116,-0.442881 2.560994,-0.805253 2.597515,-0.805253 0.03632,0 0.10745,0.841266 0.157708,1.869489 0.05019,1.028215 0.219985,3.425217 0.377363,5.326668 0.225664,2.726619 0.251619,3.512426 0.122771,3.718638 -0.08982,0.143799 -2.579846,3.167557 -5.533406,6.719451 -2.953615,3.551894 -5.339024,6.489128 -5.300965,6.527194 0.03826,0.03826 2.933142,-0.525218 6.433512,-1.251759 3.500373,-0.72649 6.421005,-1.329648 6.490309,-1.34026 0.06901,-0.01083 0.302934,0.623111 0.519155,1.40831 0.216221,0.785209 0.756099,2.667123 1.199629,4.182074 0.443537,1.514959 0.806496,2.930189 0.806496,3.144951 0,0.214741 -0.152953,0.796852 -0.339917,1.293535 -0.206777,0.549336 -0.339917,1.186297 -0.339917,1.626208 v 0.723164 l -1.312092,0.84406 c -0.721665,0.464255 -1.354973,0.795106 -1.40739,0.735306 -0.0524,-0.05988 -0.351805,-0.873518 -0.665358,-1.808259 -0.796108,-2.373399 -1.879445,-4.546117 -2.731896,-5.478836 -0.759842,-0.831367 -1.382902,-1.12396 -2.071384,-0.972748 -0.494448,0.108619 -1.789121,1.288961 -2.858646,2.6062 -0.377508,0.464921 -0.733145,0.816398 -0.790365,0.78105 -0.05739,-0.03494 -0.145966,-0.312965 -0.19736,-0.61687 -0.05158,-0.303904 -0.178147,-0.585183 -0.281866,-0.62494 -0.330017,-0.126668 -2.528261,1.45956 -3.795332,2.738582 -2.647703,2.672679 -3.574251,5.550987 -3.430824,10.65782 0.08151,2.90943 0.36395,4.762833 1.185207,7.783362 0.996452,3.664773 1.930344,5.717178 3.098808,6.81013 1.515001,1.417098 2.712592,0.914672 5.322543,-2.232972 0.822802,-0.992295 1.704546,-1.944326 1.95947,-2.11564 0.254915,-0.171332 1.129084,-0.591919 1.942571,-0.934682 1.669582,-0.703452 2.361257,-1.137401 3.078524,-1.931342 1.849665,-2.047355 2.231809,-6.193117 1.041829,-11.302553 -0.148066,-0.635672 -0.299104,-1.252791 -0.335691,-1.371466 -0.04755,-0.154367 0.328096,-0.478559 1.318987,-1.138241 1.71006,-1.138565 1.73822,-1.12248 1.761902,1.006108 0.0092,0.789617 0.05482,2.047447 0.101969,2.795246 l 0.08599,1.359631 0.867307,-1.563581 c 0.477086,-0.859962 0.989339,-1.766565 1.138488,-2.014678 l 0.271234,-0.451111 0.552439,1.266887 c 0.727821,1.669198 3.68749,7.50965 5.170703,10.203553 0.647539,1.176183 1.177439,2.164011 1.177439,2.195183 0,0.109537 -2.94059,2.241017 -4.48678,3.252174 -7.609652,4.97649 -22.254709,10.729964 -33.638146,13.215117 -2.706737,0.590942 -5.697458,3.046103 -6.674597,5.479403 -1.401649,3.4904 -0.233874,7.44537 3.353192,11.35652 l 0.725409,0.79095 4.822317,-3.33845 c 3.28249,-2.27237 4.852192,-3.28469 4.915883,-3.17026 0.402545,0.72324 0.515489,3.90515 0.18464,5.2041 -0.720835,2.83053 -2.981905,4.96908 -5.886852,5.56799 -1.370085,0.28279 -3.522277,0.25367 -4.732061,-0.0666 z M 32.76507,74.658751 c 0.451944,-0.280368 0.73331,-0.750859 1.103276,-1.844421 0.344077,-1.017178 0.381001,-1.43688 0.218406,-2.484855 -0.123088,-0.793443 -0.112693,-1.038046 0.06155,-1.455792 0.115356,-0.276128 0.270719,-0.831618 0.345155,-1.23441 0.07485,-0.402796 0.223974,-0.902147 0.332262,-1.109714 0.108289,-0.207589 0.199196,-0.530375 0.202022,-0.717342 0.0028,-0.186964 0.09498,-0.45868 0.204763,-0.603813 0.112528,-0.148792 0.199611,-0.55491 0.199611,-0.930748 0,-0.457266 0.08883,-0.79153 0.282613,-1.063703 0.155442,-0.218321 0.257576,-0.472073 0.226886,-0.563891 -0.03078,-0.0919 0.08575,-0.515153 0.25866,-0.940571 0.500933,-1.232888 0.609301,-1.944324 0.648391,-4.258939 0.03408,-2.006287 0.217654,-3.347163 0.50168,-3.660389 0.114028,-0.125757 0.656462,0.907618 0.6622,1.261473 0.0016,0.101387 0.186549,0.416103 0.41086,0.699377 0.224311,0.28328 0.407867,0.612545 0.407867,0.73173 0,0.119186 0.183557,0.789783 0.407868,1.490083 0.224311,0.700375 0.407867,1.454171 0.407867,1.675179 0,0.220982 0.08982,0.520561 0.199611,0.665776 0.109782,0.145134 0.201606,0.523969 0.203931,0.841764 0.0024,0.317793 0.05825,0.577866 0.123505,0.577866 0.220566,0 0.731064,2.565622 0.617953,3.105928 -0.05739,0.27338 -0.09033,0.803007 -0.07319,1.176906 0.01664,0.373936 0.04742,1.13869 0.0682,1.699539 0.05072,1.363415 0.306316,2.176377 0.683076,2.172419 0.511665,-0.0054 1.368131,-0.488875 1.747785,-0.986597 0.406118,-0.532455 0.447539,-0.792943 0.226887,-1.425967 -0.112113,-0.321538 -0.09714,-0.558403 0.06571,-1.037572 0.146381,-0.431154 0.17258,-0.721334 0.08583,-0.949611 -0.07984,-0.210753 -0.07152,-0.503681 0.02496,-0.816065 0.112277,-0.365779 0.107536,-0.627601 -0.01915,-1.049481 -0.159518,-0.532369 -0.146296,-0.597744 0.249757,-1.234826 0.229964,-0.370025 0.418176,-0.763418 0.418176,-0.874375 0,-0.11095 0.09723,-0.389567 0.215996,-0.619287 0.141475,-0.273545 0.186469,-0.574874 0.130492,-0.873419 -0.05825,-0.308395 -0.01578,-0.561896 0.12966,-0.784127 0.158936,-0.242605 0.227389,-0.76741 0.261988,-2.009048 0.02912,-1.045049 0.129244,-1.937804 0.264729,-2.360516 0.119846,-0.373935 0.219483,-0.863364 0.221484,-1.087698 0.0039,-0.452611 0.267562,-1.294866 0.495194,-1.58177 0.08068,-0.102133 0.184468,-0.430487 0.229799,-0.729568 0.04491,-0.299163 0.216743,-1.125091 0.380837,-1.835497 0.164094,-0.710438 0.32303,-1.821316 0.353139,-2.468687 0.04405,-0.945278 0.106459,-1.223839 0.317377,-1.414698 0.158355,-0.143304 0.262569,-0.415601 0.262569,-0.686069 0,-0.2466 0.05409,-0.588928 0.119766,-0.760757 0.360377,-0.939589 0.720004,-2.169167 0.653715,-2.235387 -0.04161,-0.04161 0.164596,-0.553661 0.458931,-1.137284 0.294256,-0.583605 0.535031,-1.092772 0.535031,-1.131421 0,-0.196282 2.802282,-2.825965 3.087755,-2.897615 0.476069,-0.119516 0.877769,0.146216 1.325706,0.876945 0.349314,0.569881 0.402379,0.81174 0.497024,2.265349 0.11303,1.737222 -0.01744,3.294665 -0.341245,4.069436 -0.196362,0.470079 -0.81199,0.999355 -1.743137,1.498841 -0.447288,0.239943 -0.530791,0.245101 -1.011006,0.06241 -0.47033,-0.1789 -0.531373,-0.257827 -0.601403,-0.778139 -0.04907,-0.362292 -0.01499,-0.665028 0.08966,-0.808496 0.157107,-0.214828 0.184138,-0.214497 0.427409,0.0057 0.223974,0.202682 0.294837,0.209425 0.514908,0.04821 0.372852,-0.272634 0.345491,-2.272256 -0.03824,-2.788559 -0.382085,-0.514155 -0.989266,-0.535447 -1.602163,-0.05653 -0.831725,0.650393 -0.992052,1.124868 -0.910147,2.693646 0.08649,1.65728 0.417682,2.506946 1.053224,2.70242 0.22406,0.06903 0.614711,0.214913 0.868138,0.324364 0.686569,0.296587 1.418574,0.147214 2.042965,-0.416849 0.288682,-0.260739 0.711021,-0.515073 0.938599,-0.565053 0.227553,-0.04993 0.491866,-0.185056 0.587349,-0.300081 0.295504,-0.356051 0.920409,-1.958996 0.842687,-2.161556 -0.04075,-0.105542 0.0028,-0.510583 0.09623,-0.899967 0.0934,-0.389402 0.181641,-1.598513 0.196032,-2.686851 0.02326,-1.774413 -0.0076,-2.077144 -0.300271,-2.930564 -0.179481,-0.523472 -0.429656,-1.074125 -0.555992,-1.223706 -0.846114,-1.002232 -2.340788,-0.715762 -3.704744,0.710022 -0.445125,0.465254 -1.139047,1.094943 -1.542123,1.399266 -0.403041,0.304319 -0.808496,0.735889 -0.900922,0.959076 -0.09248,0.223149 -0.334674,0.524385 -0.538274,0.669353 -0.313883,0.223558 -0.413937,0.469082 -0.657875,1.614422 -0.15819,0.742958 -0.47848,1.831089 -0.711686,2.418111 -0.241443,0.607558 -0.510662,1.652956 -0.625106,2.426953 -0.288602,1.952359 -0.835668,4.473385 -1.157095,5.332474 -0.152121,0.406705 -0.245768,0.901022 -0.208012,1.098568 0.03745,0.197531 -0.0092,0.575118 -0.104214,0.839011 -0.09506,0.263897 -0.240359,0.816314 -0.322786,1.227632 -0.08234,0.411275 -0.274126,1.202531 -0.42583,1.758323 -0.151705,0.555828 -0.278122,1.228804 -0.280784,1.495589 -0.003,0.302406 -0.125505,0.632588 -0.325196,0.876738 L 42.9399,59.049016 42.85673,58.657369 C 42.811,58.441958 42.741635,57.990345 42.702212,57.653864 42.605482,56.828734 42.54502,56.630689 42.100144,55.6824 41.88964,55.233697 41.641628,54.538779 41.548892,54.13809 c -0.09273,-0.400713 -0.343658,-1.073717 -0.557655,-1.495597 -0.213996,-0.421839 -0.389818,-0.828291 -0.390816,-0.903077 -10e-4,-0.07485 -0.243023,-0.400048 -0.537944,-0.722665 -0.779303,-0.852568 -0.876146,-1.257872 -0.677503,-2.836116 0.150122,-1.192651 0.224809,-1.41172 0.781798,-2.293947 0.338669,-0.536447 0.78837,-1.090991 0.999355,-1.232297 0.210918,-0.141303 0.383664,-0.355721 0.383914,-0.476565 6.16e-4,-0.323116 -0.525633,-0.936087 -0.803589,-0.936087 -0.240359,0 -1.166776,0.833098 -1.457413,1.310577 -0.184389,0.302908 -0.554659,0.260819 -0.952897,-0.108453 -0.291013,-0.269808 -0.291429,-0.269808 -0.985731,0.08234 -0.788785,0.399718 -0.798349,0.436061 -0.475316,1.800574 0.450035,1.900885 0.190128,4.722887 -0.634754,6.893343 -0.145298,0.38225 -0.264563,0.939763 -0.264979,1.238885 -4.08e-4,0.299163 -0.06406,0.910953 -0.141138,1.359631 -0.07735,0.448701 -0.171993,1.182877 -0.210753,1.631555 -0.0391,0.448701 -0.126754,1.06051 -0.195536,1.359623 -0.06903,0.299162 -0.126503,0.744871 -0.128333,0.990522 -0.0018,0.245682 -0.09348,0.584272 -0.203686,0.752439 -0.110197,0.168169 -0.260072,0.701373 -0.333181,1.184891 -0.472651,3.128747 -0.59383,3.336007 -0.819886,1.401979 -0.09481,-0.810992 -0.262319,-1.719317 -0.372352,-2.018438 -0.110033,-0.299077 -0.233788,-0.696799 -0.275124,-0.883757 -0.04161,-0.186964 -0.122844,-0.401131 -0.181146,-0.475897 -0.128332,-0.164431 -0.56331,-2.398592 -0.482719,-2.479183 0.03163,-0.03163 -0.06406,-0.331352 -0.212747,-0.666691 -0.148379,-0.335344 -0.292596,-0.896626 -0.320541,-1.247254 -0.15611,-1.956725 -0.346653,-3.349092 -0.533619,-3.899886 -0.116189,-0.342161 -0.211668,-0.879948 -0.21225,-1.195154 -10e-4,-0.574123 -0.214246,-2.119755 -0.357548,-2.592153 -0.113611,-0.374431 -1.188692,-0.807747 -1.721595,-0.693804 -0.554495,0.118517 -0.735973,0.269221 -1.045557,0.868295 -0.305483,0.59109 -2.74709,3.090766 -3.915439,4.008456 -0.513159,0.403125 -0.884255,0.807748 -0.935114,1.019723 -0.04657,0.193287 -0.366197,0.666775 -0.710771,1.052177 -2.094945,2.343324 -2.385949,2.87029 -2.509715,4.544728 -0.04742,0.641576 -0.146547,1.345217 -0.220315,1.563572 -0.236205,0.699544 -0.258078,1.9906 -0.04491,2.640392 0.110534,0.336502 0.408033,1.047327 0.661202,1.579582 l 0.460175,0.967742 0.683491,0.09065 c 0.840442,0.111532 1.037455,0.01414 2.154429,-1.062023 1.474215,-1.42067 1.732899,-1.924664 2.134785,-4.15926 0.127751,-0.710439 0.286436,-1.397889 0.352557,-1.527742 0.144883,-0.284356 0.15644,-1.475296 0.01664,-1.670529 -0.05488,-0.07652 -0.260489,-0.241192 -0.456772,-0.365865 -0.346151,-0.219985 -0.375599,-0.213745 -0.979502,0.206592 -0.342413,0.238364 -0.748115,0.656627 -0.901431,0.929442 -0.153368,0.272878 -0.36453,0.528962 -0.469246,0.569214 -0.380916,0.146131 -0.394309,0.854648 -0.02827,1.479654 0.589509,1.005909 0.487375,2.130992 -0.274212,3.02072 -0.251758,0.294091 -0.457683,0.611963 -0.457683,0.706447 0,0.16659 -0.505174,0.595083 -0.70154,0.595083 -0.05323,0 -0.28536,-0.382415 -0.515324,-0.849766 -0.486794,-0.989333 -0.54252,-1.658685 -0.309141,-3.714866 0.185637,-1.635497 0.420508,-2.216232 1.492736,-3.69073 0.446872,-0.614545 0.88468,-1.291597 0.972915,-1.504612 0.09406,-0.227138 0.43157,-0.545677 0.816065,-0.770239 0.442797,-0.258659 0.782547,-0.600154 1.046562,-1.052276 0.322951,-0.552915 2.000922,-2.247629 2.371046,-2.394682 0.14189,-0.05653 0.310555,1.013352 0.190458,1.207679 -0.05323,0.08633 -0.14763,0.379259 -0.209505,0.650809 -0.122342,0.537112 0.221729,1.946929 0.708776,2.904266 0.385241,0.75718 0.689063,2.222645 0.691393,3.334878 0.0014,0.695551 0.07818,1.135222 0.25891,1.49035 0.141224,0.277038 0.25683,0.599573 0.25683,0.716676 0,0.117105 0.08358,0.333597 0.185716,0.481141 0.167674,0.242188 0.381834,1.084745 0.802674,3.157826 0.101301,0.499104 0.102299,0.900707 0.0033,1.333249 -0.108124,0.472569 -0.09681,0.771985 0.04821,1.265508 0.159352,0.543596 0.160851,0.77265 0.0092,1.439116 -0.219318,0.965771 -0.05237,2.20266 0.312305,2.318523 0.238781,0.07568 0.542104,0.613964 0.542104,0.961854 0,0.11103 0.08317,0.233623 0.184389,0.272548 0.23604,0.09057 0.111194,0.821138 -0.297334,1.739502 -0.359875,0.809078 -0.359624,0.781632 -0.01334,1.222034 0.335921,0.426994 0.563977,0.446205 1.129774,0.09523 z"
       id="path23" />
    <path
       style="fill:#dfe586;fill-opacity:1;stroke:#000000;stroke-width:0;stroke-linecap:round;stroke-linejoin:miter;stroke-dasharray:none;stroke-dashoffset:42.3307;stroke-opacity:1;paint-order:normal"
       d="m 19.900682,41.904774 c -0.259324,-0.287019 -0.663614,-0.928519 -0.898445,-1.425559 -0.423335,-0.895942 -0.933916,-2.496233 -0.825545,-2.587321 0.177151,-0.148867 7.930032,-3.20468 7.986754,-3.147967 0.110032,0.110032 -0.220817,2.780492 -0.454856,3.67178 -0.634754,2.416598 -1.654237,3.49108 -3.664973,3.862784 -1.36803,0.25292 -1.615844,0.209669 -2.142901,-0.373684 z"
       id="path24" />
    <path
       style="fill:#dfe586;fill-opacity:1;stroke:#000000;stroke-width:0;stroke-linecap:round;stroke-linejoin:miter;stroke-dasharray:none;stroke-dashoffset:42.3307;stroke-opacity:1;paint-order:normal"
       d="m 51.451995,84.60525 c -0.957047,-0.631177 -1.689376,-2.216532 -2.683158,-5.808547 -0.981706,-3.548318 -1.426916,-6.366153 -1.428554,-9.041534 -0.0014,-2.288133 0.170582,-3.254495 0.815898,-4.58416 0.424417,-0.874583 1.477517,-2.066884 1.655259,-1.874079 0.06903,0.07485 0.507921,1.910275 0.975593,4.078885 0.467668,2.168609 1.306062,5.954203 1.86316,8.412435 1.139987,5.030251 1.290707,5.971761 1.124392,7.023837 -0.130578,0.826128 -0.411361,1.278424 -1.073501,1.729047 -0.540691,0.368031 -0.770404,0.379754 -1.249056,0.06406 z"
       id="path25" />
    <path
       style="fill:#dfe586;fill-opacity:1;stroke:#000000;stroke-width:0;stroke-linecap:round;stroke-linejoin:miter;stroke-dasharray:none;stroke-dashoffset:42.3307;stroke-opacity:1;paint-order:normal"
       d="M 57.625817,80.179372 C 56.856993,79.75246 56.408041,78.616024 55.548861,74.921759 54.445685,70.178346 52.835637,62.961921 52.835637,62.760791 c 0,-0.290928 1.426424,-1.660416 1.836644,-1.763372 1.179277,-0.296006 2.475582,1.677865 3.800797,5.787364 2.319862,7.193903 2.447276,12.231023 0.336675,13.307793 -0.606977,0.309644 -0.762088,0.321036 -1.183901,0.08683 z"
       id="path26" />
    <path
       style="fill:#dfe586;fill-opacity:1;stroke:#000000;stroke-width:0;stroke-linecap:round;stroke-linejoin:miter;stroke-dasharray:none;stroke-dashoffset:42.3307;stroke-opacity:1;paint-order:normal"
       d="m 49.043938,108.5386 c -0.384581,-2.10459 -1.580539,-4.88571 -2.832198,-6.58597 -0.330599,-0.44902 -0.581525,-0.82804 -0.557571,-0.84215 0.0241,-0.0139 1.848346,-0.62403 4.05434,-1.35527 11.950959,-3.961642 20.094519,-7.931745 27.26817,-13.293638 4.040707,-3.020195 6.595923,-4.197817 9.108503,-4.197817 1.286474,0 2.210927,0.243602 3.528448,0.92975 1.306511,0.680414 2.266897,1.645786 2.635919,2.649606 1.377302,3.746531 -0.199578,7.551535 -3.807567,9.187456 -1.188719,0.539033 -2.080303,0.754937 -4.810715,1.165222 -15.019507,2.256839 -26.096488,6.417931 -33.511333,12.588641 -0.444045,0.3695 -0.83012,0.67193 -0.857832,0.67193 -0.02747,0 -0.125922,-0.41303 -0.218164,-0.91776 z"
       id="path27" />
    <path
       style="fill:#dfe586;fill-opacity:1;stroke:#000000;stroke-width:0;stroke-linecap:round;stroke-linejoin:miter;stroke-dasharray:none;stroke-dashoffset:42.3307;stroke-opacity:1;paint-order:normal"
       d="m 34.762042,107.32336 c -0.352644,-1.27005 -0.07901,-2.17663 0.912583,-3.02432 1.589056,-1.35828 3.204534,-1.58902 4.489229,-0.64127 l 0.424503,0.31324 -2.732835,1.89289 c -1.503057,1.04108 -2.781606,1.91198 -2.841214,1.9353 -0.0599,0.0231 -0.173162,-0.19079 -0.252253,-0.47589 z"
       id="path28" />
    <path
       style="fill:#a0892c;fill-opacity:1;stroke:#000000;stroke-width:0;stroke-linecap:round;stroke-linejoin:miter;stroke-dasharray:none;stroke-dashoffset:42.3307;stroke-opacity:1;paint-order:normal"
       d="m 72.906734,48.80171 c 0.232269,-0.963941 1.607735,-4.263198 2.763163,-6.627914 5.46863,-11.192249 13.522386,-19.638478 22.488609,-23.584498 5.400914,-2.376942 9.361844,-2.4958 12.915944,-0.387572 1.26692,0.751524 3.20287,2.716658 4.29862,4.363475 0.50318,0.756266 1.3122,2.205912 1.79783,3.22151 0.86195,1.802619 2.28071,5.643238 2.08465,5.643238 -0.0542,0 -4.99757,-1.609149 -10.98541,-3.575888 -5.98784,-1.966739 -10.919847,-3.54302 -10.96002,-3.502849 -0.03963,0.03992 0.835957,2.568957 1.946952,5.619527 1.110998,3.050561 1.992168,5.574316 1.958158,5.608332 -0.0343,0.03408 -2.844135,-1.251468 -6.2447,-2.856626 -3.400564,-1.605157 -6.199323,-2.897961 -6.219439,-2.872893 -0.01981,0.02496 0.460443,2.408406 1.06781,5.29632 0.607386,2.887918 1.088058,5.330714 1.068094,5.428439 -0.01981,0.09772 -1.381297,-0.456937 -3.025183,-1.232522 -1.643899,-0.775644 -3.034184,-1.364496 -3.089534,-1.308623 -0.05548,0.05574 -0.265554,1.52499 -0.467246,3.264692 L 83.9385,44.460956 83.113202,44.321978 c -2.064829,-0.347651 -4.858225,0.477977 -7.126179,2.106224 -0.44433,0.318955 -1.345186,1.09169 -2.001985,1.717137 -1.087893,1.035991 -1.183845,1.094393 -1.078297,0.656376 z"
       id="path30" />
  </g>
</svg>
