<?xml version="1.0" encoding="UTF-8" standalone="no"?>
<!-- Created with Inkscape (http://www.inkscape.org/) -->

<svg
   width="128"
   height="128"
   viewBox="0 0 128 128"
   version="1.1"
   id="svg1"
   sodipodi:docname="drawing.svg"
   inkscape:version="1.4 (86a8ad7, 2024-10-11)"
   xmlns:inkscape="http://www.inkscape.org/namespaces/inkscape"
   xmlns:sodipodi="http://sodipodi.sourceforge.net/DTD/sodipodi-0.dtd"
   xmlns:xlink="http://www.w3.org/1999/xlink"
   xmlns="http://www.w3.org/2000/svg"
   xmlns:svg="http://www.w3.org/2000/svg">
  <sodipodi:namedview
     id="namedview1"
     pagecolor="#ffffff"
     bordercolor="#000000"
     borderopacity="0.25"
     inkscape:showpageshadow="2"
     inkscape:pageopacity="0.0"
     inkscape:pagecheckerboard="0"
     inkscape:deskcolor="#d1d1d1"
     inkscape:document-units="mm"
     inkscape:zoom="14.22762"
     inkscape:cx="36.79463"
     inkscape:cy="61.535241"
     inkscape:window-width="1920"
     inkscape:window-height="1051"
     inkscape:window-x="-9"
     inkscape:window-y="-9"
     inkscape:window-maximized="1"
     inkscape:current-layer="g2613" />
  <defs
     id="defs1">
    <linearGradient
       id="linearGradient2613"
       inkscape:collect="always">
      <stop
         style="stop-color:#ffffff;stop-opacity:1;"
         offset="0.35774058"
         id="stop2613" />
      <stop
         style="stop-color:#268a96;stop-opacity:1;"
         offset="1"
         id="stop2614" />
    </linearGradient>
    <radialGradient
       inkscape:collect="always"
       xlink:href="#linearGradient2613"
       id="radialGradient2614"
       cx="54.228579"
       cy="64.001538"
       fx="54.228579"
       fy="64.001538"
       r="49.283096"
       gradientTransform="matrix(1,0,0,1.2088461,0,-13.366474)"
       gradientUnits="userSpaceOnUse" />
  </defs>
  <g
     inkscape:label="Layer 1"
     inkscape:groupmode="layer"
     id="layer1"
     transform="matrix(0.89588603,0,0,1.0031305,0.45596471,-0.20035967)">
    <g
       id="g2613"
       inkscape:label="parchement"
       transform="matrix(0.96944302,-0.19360106,0.27379908,0.89142466,-13.153881,17.380314)">
      <path
         style="fill:url(#radialGradient2614);stroke:#268a96;stroke-width:8.70951;stroke-linecap:round;stroke-dasharray:none;stroke-dashoffset:42.3307;stroke-opacity:1"
         d="M 17.472609,29.263966 C 5.6004143,43.295656 10.159508,50.347599 10.159508,50.347599 L 34.283082,44.88908 17.441954,61.123591 c 0,0 4.26627,4.919248 7.515807,8.926884 8.153547,10.055729 23.436544,20.381744 8.280677,46.052065 L 90.426464,98.482079 C 101.7167,87.016062 98.852239,75.85347 98.852239,75.85347 L 76.889376,81.624023 93.349003,65.391876 c 0,0 -7.328859,-5.753374 -15.847752,-13.869535 -9.01924,-8.592855 -17.584452,-19.799258 -4.263083,-39.304129 z"
         id="path1"
         sodipodi:nodetypes="ccccscccccscc" />
      <text
         xml:space="preserve"
         style="font-size:42.7287px;line-height:0;font-family:Nyala;-inkscape-font-specification:Nyala;text-align:start;writing-mode:lr-tb;direction:ltr;text-anchor:start;fill:#ffffff;fill-opacity:1;stroke:#268a96;stroke-width:1.88976;stroke-linecap:square;stroke-dasharray:none;stroke-dashoffset:42.3307;stroke-opacity:1"
         x="10.166604"
         y="84.7332"
         id="text2612"
         transform="matrix(0.85918866,-0.39881698,0.3407028,1.0057418,0,0)"><tspan
           sodipodi:role="line"
           id="tspan2612"
           x="10.166604"
           y="84.7332"
           style="font-weight:bold;fill:#159fab;fill-opacity:1;stroke-width:1.88976;stroke-dasharray:none">&lt;/&gt;</tspan></text>
    </g>
    <g
       id="g2612"
       transform="matrix(1.092311,0,0,1.2946744,2.3125686,-19.126912)"
       inkscape:label="quill">
      <path
         style="fill:#226abe;fill-opacity:1;stroke:#000000;stroke-width:0;stroke-linecap:round;stroke-dashoffset:42.3307"
         d="m 65.506784,71.04011 c 0,0 4.344575,-29.054817 13.621426,-39.411751 C 99.60469,8.7678486 120.8314,22.034357 123.08779,27.810132 125.6605,34.39562 98.687117,29.482928 94.293112,38.050699 82.215587,61.60038 79.723417,34.780756 65.506784,71.04011 Z"
         id="path2"
         sodipodi:nodetypes="csssc" />
      <path
         style="fill:#ffffff;fill-opacity:1;stroke:#268a96;stroke-width:0;stroke-linecap:square;stroke-dasharray:none;stroke-dashoffset:42.3307;stroke-opacity:1"
         d="M 73.888803,50.951362 C 83.41574,27.358537 95.309269,24.993305 110.42718,23.831757 90.381855,26.724991 85.817148,32.223964 73.888803,50.951362 Z"
         id="path2612"
         sodipodi:nodetypes="ccc" />
    </g>
  </g>
</svg>
